<?xml version="1.0" encoding="UTF-8"?>
<!-- Generator: Adobe Illustrator 15.0.0, SVG Export Plug-In . SVG Version: 6.00 Build 0)  -->
<!DOCTYPE svg PUBLIC "-//W3C//DTD SVG 1.1//EN" "http://www.w3.org/Graphics/SVG/1.1/DTD/svg11.dtd">
<svg version="1.1" id="Layer_1" xmlns="http://www.w3.org/2000/svg" xmlns:xlink="http://www.w3.org/1999/xlink" x="0px" y="0px" width="38px" height="488px" viewBox="0 0 38 488" enable-background="new 0 0 38 488" xml:space="preserve">
<g>
	<g>
		<g>
			<defs>
				<rect id="SVGID_1_" width="18.219" height="18.219"/>
			</defs>
			<clipPath id="SVGID_2_">
				<use xlink:href="#SVGID_1_" overflow="visible"/>
			</clipPath>
			<path clip-path="url(#SVGID_2_)" fill="#666666" d="M0.634,1.801c-0.662,0.824-2.128,4.75,4.155,11.178     c6.619,6.774,10.891,5.324,11.625,4.563l-4.426-4.418c-0.617,0.618-1.414,0.068-2.943-1.176c-1.009-0.823-2.175-1.929-3.184-3.18     c-0.708-0.875-1.334-1.793-0.688-2.44L0.634,1.801z"/>
		</g>
	</g>
	<g>
		<g>
			<defs>
				<rect id="SVGID_3_" width="18.219" height="18.219"/>
			</defs>
			<clipPath id="SVGID_4_">
				<use xlink:href="#SVGID_3_" overflow="visible"/>
			</clipPath>
			<path clip-path="url(#SVGID_4_)" fill="#666666" d="M18.014,15.958c0.289-0.286,0.26-0.724-0.002-0.986v-0.003     c0,0-3.453-3.441-3.455-3.442c-0.273-0.273-0.711-0.269-0.982,0.001l-1.252,1.251l4.439,4.431c0,0,1.252-1.249,1.25-1.249     L18.014,15.958z"/>
		</g>
	</g>
	<g>
		<g>
			<defs>
				<rect id="SVGID_5_" width="18.219" height="18.219"/>
			</defs>
			<clipPath id="SVGID_6_">
				<use xlink:href="#SVGID_5_" overflow="visible"/>
			</clipPath>
			<path clip-path="url(#SVGID_6_)" fill="#666666" d="M6.768,4.733c0.287-0.288,0.26-0.723,0-0.984V3.745     c0,0-3.553-3.541-3.555-3.542c-0.273-0.275-0.71-0.267-0.981,0L0.98,1.455l4.536,4.528C5.516,5.983,6.768,4.737,6.768,4.733     L6.768,4.733z"/>
		</g>
	</g>
</g>
<g id="Layer_5">
	<rect y="132.063" fill="#336699" width="10" height="1.875"/>
	<g id="Layer_5_1_">
		<rect x="4.063" y="128" fill="#336699" width="1.875" height="10"/>
	</g>
</g>
<g id="Layer_5_2_">
	<rect y="101" fill="#336699" width="10" height="1.875"/>
</g>
<g>
	<path fill="#666666" d="M18.914,32H1.087C0.486,32,0,32.487,0,33.086v11.816c0,0.6,0.486,1.086,1.087,1.086h17.827   c0.598,0,1.086-0.486,1.086-1.086V33.086C20,32.487,19.512,32,18.914,32z M18.953,44.42c0,0.317-0.256,0.575-0.574,0.575H1.619   c-0.318,0-0.575-0.257-0.575-0.575V33.595c0-0.317,0.257-0.574,0.575-0.574h16.76c0.318,0,0.574,0.257,0.574,0.574V44.42z"/>
	<path fill="#666666" d="M15.346,49.448l-2.393-0.598l-0.41-2.421H7.456l-0.411,2.421l-2.391,0.598   c-0.111,0.027-0.2,0.142-0.2,0.255v0.334c0,0.113,0.092,0.206,0.205,0.206h10.68c0.113,0,0.205-0.092,0.205-0.206v-0.334   C15.545,49.59,15.455,49.476,15.346,49.448z"/>
</g>
<g>
	<circle fill="#EC008C" cx="19" cy="371" r="19"/>
	<text transform="matrix(1 0 0 1 4.0679 374.2598)" fill="#FFFFFF" font-family="'Helvetica-Bold'" font-size="10.3376">BLOG</text>
</g>
<g>
	<circle fill="#333333" cx="19" cy="307" r="19"/>
	<g>
		<path fill="#FFFFFF" d="M17.767,300.081c0.132,0.08,0.276,0.197,0.438,0.352c0.152,0.158,0.305,0.354,0.453,0.588    c0.14,0.221,0.267,0.479,0.375,0.779c0.091,0.299,0.135,0.648,0.135,1.049c-0.012,0.732-0.173,1.32-0.485,1.76    c-0.153,0.213-0.312,0.41-0.483,0.59c-0.191,0.18-0.394,0.365-0.605,0.549c-0.122,0.127-0.235,0.27-0.339,0.432    c-0.122,0.168-0.183,0.359-0.183,0.578c0,0.213,0.061,0.391,0.188,0.531c0.105,0.133,0.209,0.248,0.31,0.348l0.693,0.57    c0.435,0.355,0.811,0.744,1.137,1.17c0.309,0.436,0.469,1,0.48,1.699c0,0.994-0.438,1.873-1.316,2.639    c-0.908,0.793-2.221,1.203-3.936,1.23c-1.435-0.014-2.506-0.318-3.215-0.918c-0.714-0.561-1.071-1.229-1.071-2.004    c0-0.381,0.116-0.803,0.349-1.27c0.224-0.465,0.635-0.873,1.225-1.227c0.663-0.379,1.36-0.633,2.093-0.758    c0.723-0.107,1.323-0.166,1.8-0.182c-0.147-0.193-0.279-0.4-0.393-0.621c-0.136-0.215-0.204-0.473-0.204-0.773    c0-0.182,0.026-0.332,0.077-0.453c0.046-0.129,0.087-0.244,0.127-0.354c-0.233,0.029-0.454,0.043-0.66,0.043    c-1.09-0.014-1.923-0.357-2.495-1.031c-0.597-0.627-0.897-1.355-0.897-2.188c0-1.006,0.426-1.99,1.272-2.811    c0.584-0.48,1.189-0.865,1.816-1.01c0.621-0.129,1.204-0.283,1.748-0.283h4.099l-1.266,0.975H17.767z M15.704,305.87    c0.54-0.021,0.989-0.213,1.349-0.58c0.173-0.262,0.284-0.529,0.335-0.803c0.029-0.273,0.043-0.504,0.043-0.691    c0-0.807-0.205-1.621-0.619-2.443c-0.194-0.393-0.448-0.715-0.765-0.961c-0.324-0.234-0.694-0.357-1.114-0.371    c-0.555,0.014-1.018,0.238-1.385,0.67c-0.311,0.455-0.461,0.963-0.448,1.523c0,0.74,0.219,1.512,0.652,2.314    c0.209,0.373,0.48,0.689,0.814,0.951C14.896,305.741,15.276,305.87,15.704,305.87L15.704,305.87z M18.56,311.876    c0-0.518-0.169-0.973-0.508-1.361c-0.357-0.365-0.92-0.813-1.683-1.348c-0.13-0.014-0.285-0.02-0.46-0.02    c-0.106-0.014-0.372,0-0.804,0.041c-0.423,0.059-0.858,0.156-1.301,0.289c-0.104,0.041-0.251,0.1-0.441,0.178    c-0.188,0.086-0.381,0.211-0.577,0.371c-0.188,0.168-0.348,0.373-0.478,0.619c-0.151,0.26-0.228,0.574-0.228,0.941    c0,0.719,0.328,1.313,0.979,1.781c0.62,0.465,1.469,0.705,2.544,0.719c0.967-0.014,1.703-0.227,2.212-0.641    C18.313,313.038,18.56,312.517,18.56,311.876L18.56,311.876z"/>
		<g id="Layer_5_3_">
			<rect x="21.354" y="302.138" fill="#FFFFFF" width="7.055" height="0.941"/>
			<g id="Layer_5_4_">
				<rect x="24.408" y="299.081" fill="#FFFFFF" width="0.943" height="7.057"/>
			</g>
		</g>
	</g>
</g>
<g>
	<circle fill="#45B0E3" cx="19" cy="243" r="19"/>
	<g>
		<path fill-rule="evenodd" clip-rule="evenodd" fill="#FFFFFF" d="M8.519,246.199c0,0,4.165,3.62,7.478,0.029    c0,0-0.555,0-0.91-0.273c-0.323-0.248-0.452-0.773-0.452-0.773s1.03-0.573,0.643-1.011c0,0-2.277-0.044-2.405-1.42l1.339-0.865    c0,0-0.525,0.255-1.046-0.004c0,0-1.352-0.97-1.094-1.96l1.129-0.116c0,0-1.959-1.393-1.411-2.461c0,0,0.188-0.921,6.665,3.382    c0,0,1.143-4.065,3.253-4.959c0,0,0.349,0.17,0.349,0.348c0,0,0.3-0.643,0.694-0.703c0,0,0.478,0.421,0.168,0.658    c0,0,0.8-0.549,1.193-0.271c0,0-0.033,0.488-1.186,1.098c0,0,2.996,0.165,4.039,4.158c0,0,1.298,0.467,2.516-0.318    c0,0,0.101,0.592-1.787,1.424c0,0,0.174,0.285,1.76,0.069c0,0-0.013,1.181-2.522,1.172c0,0-2.117,6.139-7.271,6.983    C13.399,251.414,9.002,248.283,8.519,246.199z"/>
	</g>
</g>
<g>
	<circle fill="#39599F" cx="19" cy="179" r="19"/>
	<path fill-rule="evenodd" clip-rule="evenodd" fill="#FFFFFF" d="M23,170.498h-2.492c0,0-3.896-0.408-3.896,3.647   c0,0.87,0,1.681,0,1.681h-1.586L15,179.019h1.611v8.495h3.695v-8.495h2.133l0.52-3.192h-2.652v-1.298c0,0-0.227-1.098,1.086-1.098   h1.584L23,170.498z"/>
</g>
<g>
	<path fill="#666666" d="M8.316,64H1.54C0.693,64,0,64.693,0,65.54v15.404c0,0.847,0.693,1.54,1.54,1.54h6.776   c0.849,0,1.541-0.693,1.541-1.54V65.54C9.857,64.693,9.165,64,8.316,64z M4.006,65.232h1.847c0.172,0,0.309,0.138,0.309,0.308   c0,0.17-0.137,0.309-0.309,0.309H4.006c-0.171,0-0.309-0.138-0.309-0.309C3.697,65.37,3.835,65.232,4.006,65.232z M4.929,81.868   c-0.51,0-0.924-0.414-0.924-0.924c0-0.511,0.414-0.925,0.924-0.925c0.511,0,0.924,0.414,0.924,0.925   C5.853,81.455,5.439,81.868,4.929,81.868z M9.243,79.403H0.617V67.081h8.626V79.403z"/>
</g>
<circle fill="#CC0000" cx="8" cy="424.001" r="8"/>
<g id="Layer_5_5_">
	
		<rect x="3" y="423.063" transform="matrix(-0.7071 0.7071 -0.7071 -0.7071 313.4701 718.1564)" fill="#FFFFFF" width="10" height="1.874"/>
	<g id="Layer_5_6_">
		
			<rect x="3" y="423.063" transform="matrix(-0.7071 -0.7071 0.7071 -0.7071 -286.1564 729.4701)" fill="#FFFFFF" width="10" height="1.874"/>
	</g>
</g>
</svg>