<?xml version="1.0" encoding="UTF-8"?>
<!-- Generator: Adobe Illustrator 14.0.0, SVG Export Plug-In . SVG Version: 6.00 Build 43363)  -->
<!DOCTYPE svg PUBLIC "-//W3C//DTD SVG 1.1//EN" "http://www.w3.org/Graphics/SVG/1.1/DTD/svg11.dtd">
<svg version="1.1" id="Layer_1" xmlns="http://www.w3.org/2000/svg" xmlns:xlink="http://www.w3.org/1999/xlink" x="0px" y="0px" width="20px" height="300px" viewBox="0 0 20 300" enable-background="new 0 0 20 300" xml:space="preserve">
<g>
	<path d="M2.784,184.556c-1.298-1.299-1.932-3.02-1.932-4.771c0-3.623,3.079-6.703,6.703-6.703c3.653,0,6.733,3.021,6.733,6.673   c0,1.569-0.545,3.141-1.6,4.408l3.049,1.238l3.109,3.14c0.242,0.302,0.361,0.694,0.361,1.086c0,0.969-0.814,1.843-1.811,1.843   c-0.393,0-0.756-0.119-1.088-0.361l-3.139-3.142l-1.238-3.019c-1.27,1.057-2.808,1.6-4.379,1.6   C5.834,186.546,4.113,185.884,2.784,184.556z M10.483,182.742c0.814-0.814,1.207-1.871,1.207-2.958   c0-2.205-1.873-4.105-4.137-4.105c-2.203,0-4.106,1.871-4.106,4.105c0,2.295,1.874,4.166,4.106,4.166   C8.61,183.95,9.668,183.526,10.483,182.742z"/>
</g>
<g>
	<g>
		<defs>
			<rect id="SVGID_1_" x="1.031" y="22.469" width="18.219" height="18.219"/>
		</defs>
		<clipPath id="SVGID_2_">
			<use xlink:href="#SVGID_1_" overflow="visible"/>
		</clipPath>
		<path clip-path="url(#SVGID_2_)" d="M1.665,24.27c-0.662,0.824-2.128,4.75,4.155,11.178c6.619,6.774,10.891,5.324,11.626,4.562    l-4.426-4.418c-0.618,0.618-1.415,0.068-2.944-1.176c-1.009-0.823-2.175-1.929-3.184-3.18c-0.708-0.875-1.334-1.793-0.688-2.44    L1.665,24.27z"/>
	</g>
	<g>
		<defs>
			<rect id="SVGID_3_" x="1.031" y="22.469" width="18.219" height="18.219"/>
		</defs>
		<clipPath id="SVGID_4_">
			<use xlink:href="#SVGID_3_" overflow="visible"/>
		</clipPath>
		<path clip-path="url(#SVGID_4_)" d="M19.045,38.427c0.289-0.286,0.259-0.724-0.002-0.986v-0.003c0,0-3.454-3.441-3.456-3.442    c-0.272-0.273-0.71-0.269-0.981,0.001l-1.252,1.251l4.438,4.431c0,0,1.252-1.249,1.251-1.249L19.045,38.427z"/>
	</g>
	<g>
		<defs>
			<rect id="SVGID_5_" x="1.031" y="22.469" width="18.219" height="18.219"/>
		</defs>
		<clipPath id="SVGID_6_">
			<use xlink:href="#SVGID_5_" overflow="visible"/>
		</clipPath>
		<path clip-path="url(#SVGID_6_)" d="M7.799,27.202c0.287-0.288,0.26-0.723,0-0.984v-0.004c0,0-3.553-3.541-3.555-3.542    c-0.273-0.275-0.71-0.267-0.981,0l-1.252,1.252l4.536,4.528c0,0,1.252-1.246,1.252-1.249V27.202z"/>
	</g>
</g>
<g>
	<path d="M0.026,140.927c0,0-0.083-0.264,0-1.673c1.144-0.616,6.528-2.142,6.834-2.29l0.028-1.057l0.418-0.117   c0,0,0.167-1.645,0.167-1.908c0,0-3.165-4.794-1.032-8.66c1.404-2.546,5.749-3.085,7.058,0.352   c1.256,3.301-0.391,8.102-0.922,8.483c0,0-0.167,1.468,0.084,1.526h0.362c0,0,0.141,1.205,0.419,1.528c0,0,5.972,1.613,6.556,2.318   c0.027,0.763,0,1.497,0,1.497L0.026,140.927L0.026,140.927z"/>
</g>
<g id="Layer_5">
	<rect x="-0.001" y="226.058" width="20.001" height="3"/>
	<rect x="-0.002" y="232.058" width="20.002" height="3"/>
	<rect x="-0.001" y="238.058" width="20.001" height="3"/>
</g>
<path d="M4.079,285.613v5.453h4.224v-4.955h3.373v4.955H15.9v-5.453l-5.911-5.91L4.079,285.613z M9.99,275.307l-8.29,8.288  l1.559,1.56l6.731-6.729l6.729,6.729l1.559-1.56L9.99,275.307z"/>
<g>
	<path d="M8.41,85.864c0-2.363,0.247-3.397,2.51-4.996c0.961-0.664,1.525-1.428,1.525-2.437c0-1.919-1.354-2.436-2.387-2.436   c-2.214,0-2.535,1.673-2.659,2.83v0.025H3.93c0-4.282,3.224-5.759,5.906-5.759c1.476,0,6.3,0.418,6.3,5.242   c0,1.993-1.083,3.175-2.979,4.527c-1.058,0.765-1.501,1.231-1.501,3.003H8.41z M11.904,90.982H8.312v-3.469h3.593V90.982z"/>
</g>
</svg>